<svg xmlns="http://www.w3.org/2000/svg" width="1280" height="320" viewBox="0 0 1280 320" role="img" aria-labelledby="title desc">
  <title id="title">webinar-transcriber</title>
  <desc id="desc">Local-first transcription for webinars and audio recordings.</desc>
  <defs>
    <linearGradient id="bg" x1="0%" x2="100%" y1="0%" y2="100%">
      <stop offset="0%" stop-color="#0f3d3e" />
      <stop offset="55%" stop-color="#1f6f78" />
      <stop offset="100%" stop-color="#f4b860" />
    </linearGradient>
  </defs>
  <rect width="1280" height="320" fill="url(#bg)" rx="24" />
  <circle cx="1060" cy="88" r="112" fill="#ffffff" fill-opacity="0.1" />
  <circle cx="1128" cy="216" r="84" fill="#ffffff" fill-opacity="0.08" />
  <g fill="#f8f6ef">
    <path d="M138 102h182c28 0 50 22 50 50v68c0 28-22 50-50 50H138c-28 0-50-22-50-50v-68c0-28 22-50 50-50zm8 36c-9 0-16 7-16 16v64c0 9 7 16 16 16h166c9 0 16-7 16-16v-64c0-9-7-16-16-16H146zm278 36 62 44 62-86h46l-86 120h-44l-84-58 44-20z" />
  </g>
  <g fill="#f8f6ef" font-family="Georgia, serif">
    <text x="436" y="134" font-size="62" font-weight="700">webinar-transcriber</text>
    <text x="438" y="186" font-size="28">Local-first notes from webinar video and audio.</text>
    <text x="438" y="226" font-size="22">Automatic language detection. Optional OCR. Markdown, DOCX, JSON.</text>
  </g>
</svg>
